<?xml version="1.0" standalone="no"?>
<!DOCTYPE svg PUBLIC "-//W3C//DTD SVG 20010904//EN"
 "http://www.w3.org/TR/2001/REC-SVG-20010904/DTD/svg10.dtd">
<svg version="1.0" xmlns="http://www.w3.org/2000/svg"
 width="882.000000pt" height="724.000000pt" viewBox="0 0 512 512"
 preserveAspectRatio="xMidYMid meet">

<g transform="translate(0.000000,724.000000) scale(0.100000,-0.100000)"
fill="#ffffff" stroke="none">
<path d="M2 4758 c1 -1366 3 -2463 5 -2438 22 311 71 560 139 704 l26 56 398
0 397 0 28 108 c15 59 29 115 32 125 4 15 23 17 219 17 l214 0 0 -31 c0 -17
20 -80 45 -139 l45 -107 53 -13 c34 -9 139 -15 308 -18 224 -3 258 -2 272 12
26 26 42 19 100 -44 53 -56 59 -60 101 -60 26 0 88 7 138 16 90 15 161 15 288
-2 44 -6 54 -13 52 -35 -1 -6 149 -18 258 -20 36 -1 57 -3 48 -6 -23 -6 -23
-15 0 -41 16 -19 23 -20 93 -13 87 9 162 40 241 99 63 48 146 132 182 186 l26
39 0 603 0 603 22 15 c13 9 43 16 70 16 l48 0 0 169 c0 209 -6 201 147 201
l103 0 0 323 c1 272 3 325 16 342 14 18 27 20 144 20 71 1 132 4 135 7 4 4 4
275 -1 602 l-7 596 -46 0 c-25 0 -341 -11 -701 -24 -360 -14 -657 -23 -659
-21 -2 2 -10 32 -18 67 -20 92 -26 316 -11 418 l13 85 55 -1 c30 0 330 -24
665 -54 336 -29 622 -51 636 -47 14 4 35 17 46 29 12 13 40 42 62 65 23 23 41
49 41 58 0 13 -229 15 -2235 15 l-2235 0 2 -2482z"/>
<path d="M4968 7233 c6 -2 12 -12 12 -20 0 -15 36 -64 81 -110 12 -13 37 -25
55 -29 18 -3 158 6 311 20 153 14 324 26 381 26 60 0 112 5 125 12 24 12 362
47 468 48 l67 0 13 -67 c28 -137 11 -427 -29 -490 -5 -9 -158 -7 -642 7 -349
11 -663 20 -697 20 l-63 0 0 -594 0 -593 83 -6 c45 -4 105 -7 132 -7 85 0 80
23 83 -355 l3 -335 33 0 c55 0 135 -19 161 -37 36 -27 45 -64 45 -194 l0 -119
58 0 c67 0 99 -18 104 -58 2 -19 9 -28 26 -30 14 -2 22 -10 22 -23 0 -10 6
-19 14 -19 8 0 17 -7 20 -17 4 -9 7 -228 7 -487 0 -398 2 -474 15 -493 33 -51
435 -301 634 -394 164 -78 217 -98 485 -191 261 -90 368 -139 509 -232 54 -36
104 -66 111 -66 19 0 90 -103 148 -218 51 -99 128 -283 206 -492 l32 -85 218
3 c256 5 331 -5 331 -42 0 -24 22 -37 83 -50 23 -6 27 -11 27 -42 0 -19 12
-58 26 -86 44 -86 95 -227 125 -343 l28 -110 1 3153 0 3152 -1932 -1 c-1063 0
-1927 -3 -1920 -6z"/>
<path d="M1 998 l-1 -998 3333 1 c1906 1 3307 5 3273 10 -32 5 -69 15 -81 23
-52 34 -143 208 -214 409 -68 193 -99 377 -81 474 18 102 70 145 264 219 l111
42 3 41 c5 60 -15 149 -45 209 -38 76 -42 78 -104 41 -120 -71 -355 -171 -562
-240 -220 -73 -482 -130 -732 -161 -162 -19 -663 -16 -885 6 -473 47 -749 121
-1155 311 -261 122 -337 136 -663 118 l-122 -6 -10 -39 c-6 -21 -15 -56 -20
-78 l-11 -40 -391 -2 -391 -3 -38 -134 c-21 -73 -40 -136 -43 -138 -3 -3 -97
-2 -210 2 l-206 7 -5 32 c-3 17 -11 65 -18 106 l-13 75 -409 5 -410 5 -27 50
c-60 111 -108 320 -127 545 -5 67 -9 -256 -10 -892z"/>
<path d="M8805 730 c-16 -73 -116 -173 -255 -258 -101 -61 -362 -192 -382
-192 -10 0 -30 -7 -44 -16 -14 -9 -42 -20 -62 -24 -20 -4 -77 -22 -127 -40
-218 -78 -681 -166 -990 -189 -67 -5 274 -9 883 -10 l992 -1 0 380 c0 209 -2
380 -4 380 -3 0 -7 -14 -11 -30z"/>
</g>
</svg>
