<svg version="1.1" id="Layer_1" xmlns="http://www.w3.org/2000/svg" xmlns:xlink="http://www.w3.org/1999/xlink" x="0px" y="0px"
	 width="100%" viewBox="0 0 882 724" xml:space="preserve">
<path fill="#FFFFFF" stroke="none"
	d="
M700.000000,725.000000 
	C686.645752,725.000000 673.291565,725.000000 659.763977,724.671997 
	C656.388733,722.174866 652.560059,720.553528 650.098572,717.737305 
	C641.570740,707.980347 637.783264,695.626709 633.136353,683.877869 
	C627.730225,670.209656 624.050049,655.906128 623.190918,641.209229 
	C622.695251,632.730591 624.128845,623.955139 633.058411,619.544861 
	C641.510498,615.370422 650.322449,611.929260 658.864746,607.927917 
	C660.211731,607.296997 661.816895,605.425598 661.843445,604.098633 
	C661.927917,599.864014 661.817078,595.502441 660.872620,591.399109 
	C659.440308,585.175903 656.897461,579.324280 652.302490,574.904053 
	C647.952209,577.443237 644.261658,580.196594 640.137634,581.901184 
	C621.948547,589.419128 603.910095,597.445679 585.301392,603.770569 
	C557.132446,613.344727 527.809570,618.036072 498.174316,619.795471 
	C483.832581,620.646851 469.331879,619.807922 454.957947,618.882874 
	C436.686584,617.706970 418.382812,616.302063 400.260223,613.789734 
	C386.910553,611.939026 373.711975,608.595154 360.655426,605.128357 
	C341.209076,599.964905 323.249054,590.930908 305.045258,582.569702 
	C293.651367,577.336365 281.839478,573.527588 269.058807,574.008789 
	C261.474945,574.294312 253.897110,574.841125 246.311707,574.959595 
	C234.625793,575.142151 234.295319,574.967834 232.183350,586.326660 
	C231.396378,590.559265 229.610794,591.074951 226.044968,591.057495 
	C203.056778,590.945068 180.067413,590.948730 157.079742,591.104980 
	C155.383896,591.116516 152.589767,592.263123 152.189987,593.493896 
	C149.813660,600.809753 147.972626,608.300598 145.996429,615.744507 
	C145.383408,618.053650 144.279770,619.109070 141.599594,619.074158 
	C128.870132,618.908264 116.137344,618.999939 103.239479,618.999939 
	C102.359207,613.671326 101.477089,609.577209 101.040451,605.436157 
	C100.046478,596.009338 100.135330,596.000000 90.668129,596.000000 
	C68.345726,596.000000 46.022083,595.876892 23.701956,596.102112 
	C19.142006,596.148193 16.825922,594.791931 14.737981,590.567505 
	C7.367805,575.655579 4.607377,559.726318 2.928760,543.449341 
	C2.804667,542.246094 1.666638,541.147339 0.999991,540.000000 
	C1.000000,520.979126 1.000000,501.958221 1.436026,482.460358 
	C2.243098,481.550079 2.884119,481.151520 2.945059,480.678284 
	C4.005145,472.445740 4.312298,464.047485 6.159441,456.001221 
	C8.879657,444.151825 12.577091,432.518616 16.113205,420.870728 
	C16.927393,418.188782 18.977432,416.860352 22.384472,416.888519 
	C47.367008,417.095093 72.352036,417.000000 97.556473,417.000000 
	C98.294716,414.496735 99.014595,412.081146 99.718819,409.660950 
	C100.480980,407.041687 101.319420,404.440338 101.966202,401.792480 
	C104.356705,392.006012 104.332123,392.000000 114.093712,392.000000 
	C125.036789,392.000000 135.979874,392.000000 146.738647,392.000000 
	C147.068451,402.310730 152.329437,410.281677 156.007965,418.795593 
	C156.216080,419.277252 156.764496,419.853882 157.237473,419.942230 
	C162.952789,421.010010 168.661896,422.679169 174.414993,422.862549 
	C187.897720,423.292267 201.403610,423.029297 214.899643,422.955933 
	C216.296799,422.948334 218.257263,422.796112 218.985550,421.911621 
	C221.780228,418.517639 223.790710,420.093414 225.991943,422.440002 
	C227.926971,424.502747 230.607651,426.148254 231.807419,428.552673 
	C233.631805,432.208862 236.419662,432.350739 239.555405,431.965485 
	C246.807037,431.074554 254.024063,429.313904 261.277771,429.185516 
	C269.254761,429.044373 277.272736,430.205414 285.230743,431.152954 
	C286.364075,431.287872 287.260071,433.416687 288.509552,434.914856 
	C298.075378,435.364075 308.285095,435.843567 319.059326,436.349548 
	C317.760620,436.847015 316.862213,437.191132 315.289368,437.793579 
	C317.119324,439.778320 318.539520,442.667542 320.082794,442.734894 
	C324.394867,442.922974 328.863098,442.374542 333.081573,441.345642 
	C347.243347,437.891663 357.083221,428.014221 366.571838,417.843445 
	C370.975708,413.122894 372.212097,407.391907 372.148956,400.766724 
	C371.826508,366.945435 372.059387,333.119263 371.967102,299.295135 
	C371.935730,287.793976 370.610992,285.709991 384.972931,285.933594 
	C385.233337,285.937653 385.498657,285.626709 386.000000,285.314178 
	C386.000000,275.977966 385.997894,266.504395 386.000702,257.030823 
	C386.002563,250.823471 387.840668,249.023697 394.241089,249.003540 
	C399.696533,248.986374 405.152069,249.000000 411.000000,249.000000 
	C411.000000,247.006760 411.000000,245.379456 411.000000,243.752167 
	C411.000000,225.090439 411.062042,206.428375 410.954865,187.767258 
	C410.929199,183.297333 413.059723,180.400406 417.152252,180.166199 
	C422.877563,179.838577 428.703369,180.199127 434.407196,180.904251 
	C438.916809,181.461761 441.042480,180.170837 440.990204,175.462799 
	C440.676575,147.217529 440.302521,118.972885 440.016449,90.727341 
	C439.914001,80.611366 440.000000,70.493484 440.000000,60.000000 
	C438.137909,60.000000 436.678833,59.945793 435.224762,60.008362 
	C420.056458,60.661045 404.893585,61.477463 389.720001,61.959072 
	C373.643982,62.469326 357.558075,62.667873 341.476379,62.996979 
	C340.143921,63.024250 338.807404,62.950035 337.478180,63.022625 
	C325.644012,63.668953 313.814392,64.425255 301.972961,64.872215 
	C300.709167,64.919914 298.424927,63.367020 298.232819,62.272503 
	C296.913818,54.758350 295.269684,47.176556 295.188538,39.600918 
	C295.083344,29.782042 296.212524,19.936823 297.163635,10.137225 
	C297.275848,8.980889 299.663635,7.097735 300.911407,7.163639 
	C306.261597,7.446215 311.565796,8.489833 316.912506,8.968380 
	C332.740356,10.385024 348.574829,11.736883 364.417358,12.977719 
	C378.493500,14.080203 392.590210,14.921791 406.664581,16.044224 
	C411.521423,16.431551 416.325134,17.711086 421.177094,17.875639 
	C427.115082,18.077026 433.565643,19.562231 438.512451,14.742003 
	C441.036774,12.282292 442.455078,8.470085 445.257233,6.578737 
	C447.697174,4.931837 448.155365,3.389802 448.000000,1.000000 
	C464.687561,1.000000 481.375122,1.000000 498.218262,1.315570 
	C500.268036,4.913211 502.205719,8.171112 504.045624,11.483322 
	C506.466980,15.842216 510.357758,17.928705 515.102173,17.922232 
	C520.852051,17.914391 526.608215,17.421827 532.349060,16.976105 
	C548.853088,15.694707 565.363464,14.468232 581.846008,12.945561 
	C590.874023,12.111545 599.844421,10.667896 608.854126,9.613293 
	C612.116821,9.231387 615.424988,9.255360 618.701172,8.966908 
	C628.319763,8.120042 637.932678,7.209296 647.897156,6.291389 
	C648.697693,12.213753 649.127197,17.214979 650.083252,22.113420 
	C652.693420,35.486618 650.282898,48.422565 646.810242,61.234161 
	C646.480774,62.449745 644.054077,63.818165 642.567932,63.857193 
	C638.828735,63.955379 635.076660,63.168552 631.319031,63.030811 
	C619.906311,62.612469 608.490051,62.255535 597.072205,62.017647 
	C577.993286,61.620144 558.912109,61.328056 539.831665,61.005795 
	C537.000000,60.957966 534.161560,61.098511 531.335632,60.960602 
	C522.990295,60.553337 514.649658,60.050129 506.248749,59.581188 
	C506.248749,99.919014 506.248749,139.319031 506.248749,178.917892 
	C514.207092,179.285904 521.927246,179.684814 529.651367,179.978745 
	C532.602356,180.091064 535.242737,180.179565 535.112732,184.302185 
	C535.052979,186.195129 535.950562,188.108734 535.958191,190.014786 
	C536.028870,207.675964 536.000000,225.337570 536.000000,242.999039 
	C536.000000,244.938004 536.000000,246.876984 536.000000,248.493088 
	C540.139099,249.048065 543.672302,249.762344 547.233398,249.951096 
	C555.617920,250.395523 560.446899,255.819397 560.061768,264.087067 
	C559.755188,270.668518 560.000000,277.275665 560.000000,284.000000 
	C563.109619,284.000000 565.598022,283.957581 568.084412,284.009491 
	C572.331421,284.098175 575.994568,284.838989 576.111694,290.363373 
	C576.130554,291.253723 577.471252,292.291962 578.416260,292.954712 
	C581.648376,295.221497 584.943542,297.483856 584.971863,301.944092 
	C585.052124,314.592560 585.000061,327.241882 585.000061,339.890869 
	C585.000122,355.719543 584.999023,371.548218 585.000854,387.376892 
	C585.001465,392.394562 584.966125,397.449493 590.016418,400.519073 
	C608.405640,411.696075 626.290283,423.853149 645.363464,433.708588 
	C661.199829,441.891510 678.248779,447.895966 695.107483,453.889587 
	C716.182434,461.382141 737.381775,468.326721 755.212585,482.569855 
	C757.270508,484.213715 760.880493,484.289612 762.375671,486.190125 
	C766.333252,491.220581 770.306702,496.506866 772.879700,502.309509 
	C781.579956,521.930664 789.712402,541.804565 797.949280,561.628662 
	C798.831421,563.751709 799.425598,565.206299 802.243103,565.066223 
	C812.471313,564.557556 822.713623,564.083313 832.950562,564.086487 
	C839.896973,564.088684 846.843201,564.910950 853.789490,565.366455 
	C854.066040,568.226501 854.673096,570.915222 855.736572,571.109863 
	C862.550110,572.356689 864.014160,576.833984 866.411804,582.852783 
	C871.878540,596.575928 877.958557,609.991699 881.076904,624.528198 
	C881.205688,625.128662 882.336243,625.514282 883.000000,626.000000 
	C883.000000,634.354248 883.000000,642.708496 882.613525,651.534302 
	C877.574341,657.749268 873.555420,664.193542 868.138733,669.092346 
	C856.323792,679.777466 841.558350,685.893616 827.465210,692.851379 
	C819.995178,696.539246 811.810120,698.806702 803.888916,701.544922 
	C796.041809,704.257507 788.221313,707.130981 780.213501,709.278870 
	C754.707214,716.120422 728.826660,720.980713 702.461121,723.076782 
	C701.595276,723.145630 700.818359,724.333679 700.000000,725.000000 
z"/>
</svg>